<?xml version="1.0" encoding="UTF-8"?>
<svg id="_レイヤー_2" data-name="レイヤー 2" xmlns="http://www.w3.org/2000/svg" viewBox="0 0 70.79 71.13">
  <defs>
    <style>
      .cls-1 {
        fill: #616161;
      }
    </style>
  </defs>
  <g id="_スキル" data-name="スキル">
    <g>
      <path class="cls-1" d="M44.48,39.16l-.22,1.12-.69,3.98-.3,1.64h19.55l-.43,2.51h-19.55l-.22,1.12-.69,3.98-.3,1.6h19.55l-1,5.62-7.22,3.33-5.67-3.11,.3-1.69,.3-1.6h-6.75l-.17,1.12-.95,5.28-.22,1.04,.95,.48,10.82,5.28,.56,.26,.56-.22,12.68-5.32,.69-.26,.17-.78,4.24-23.75,.3-1.64h-26.3Zm2.29,2.77h20.68l-3.81,21.41-11.46,4.72-9.26-4.5,.56-3.11h1.08l-.35,1.99,.87,.48,7.14,3.94,.61,.35,.65-.3,8.52-3.94,.65-.3,.13-.74,1.43-7.92,.3-1.64h-19.55l.17-1.17h19.6l.17-1.17,.95-5.28,.3-1.6h-19.55l.17-1.21Z"/>
      <path class="cls-1" d="M.85,0C.31,.1-.05,.6,0,1.14L3.67,42.08c.05,.42,.34,.76,.75,.88l16.61,4.77c.19,.06,.39,.06,.58,0l16.61-4.77c.4-.11,.7-.46,.75-.88L42.64,1.14c.03-.29-.07-.58-.27-.8-.2-.21-.48-.34-.77-.34H.85Zm1.33,2.08H40.47l-3.47,39.1-15.67,4.45-15.67-4.45L2.18,2.08Zm6.2,6.29c-.54,.1-.9,.6-.84,1.14l1.4,15.35c.03,.54,.47,.96,1.01,.97H26.52l-.45,4.77-4.7,1.01-4.77-1.01-.16-1.69c-.03-.55-.49-.97-1.04-.97h-5.06c-.29,0-.57,.12-.77,.34-.2,.22-.3,.51-.27,.8l.58,6.36c.03,.42,.31,.78,.71,.91l10.32,3.15,.13,.03c.19,.06,.39,.06,.58,0l10.45-3.18c.41-.12,.71-.48,.75-.91l1.36-15.61c.03-.29-.06-.57-.26-.79s-.46-.34-.75-.35H15.48l-.26-3.21h18.4c.54,0,.99-.41,1.04-.94l.45-5.03c.03-.29-.07-.58-.27-.8-.2-.21-.48-.34-.77-.34H8.57c-.06,0-.13,0-.19,0Zm1.33,2.08h23.23l-.26,2.95H14.09c-.29,0-.57,.12-.77,.34-.2,.22-.3,.51-.27,.8l.49,5.29c.05,.52,.48,.93,1.01,.94h17.49l-1.23,13.79-9.47,2.86-9.47-2.86-.39-4.54h2.99l.13,1.52c.03,.46,.36,.84,.81,.94l5.78,1.2c.14,.03,.28,.03,.42,0l5.68-1.2c.45-.1,.78-.48,.81-.94l.62-6.68c.02-.29-.09-.57-.28-.77-.2-.21-.47-.33-.76-.33H10.88l-1.17-13.3Z"/>
    </g>
  </g>
</svg>