<?xml version="1.0" encoding="UTF-8"?>
<svg id="_レイヤー_2" data-name="レイヤー 2" xmlns="http://www.w3.org/2000/svg" viewBox="0 0 70.61 70.61">
  <defs>
    <style>
      .cls-1 {
        fill: #616161;
      }
    </style>
  </defs>
  <g id="_スキル" data-name="スキル">
    <path class="cls-1" d="M3.36,0C1.52,0,0,1.52,0,3.36v63.88c0,1.84,1.52,3.36,3.36,3.36h63.88c1.84,0,3.36-1.52,3.36-3.36V3.36c0-1.84-1.52-3.36-3.36-3.36H3.36Zm0,3.36h63.88v63.88H3.36V3.36Zm23.41,13.45l-8.28,36.99h4.03l2.4-10.82h8.07l2.34,10.82h4.09L31.35,16.81h-4.57Zm21.53,0c-1.39,0-2.5,1.05-2.5,2.63s1.05,2.63,2.44,2.63h.06c1.55,0,2.55-1.05,2.55-2.63s-1-2.63-2.55-2.63Zm-19.35,4.1h.16c.43,2.69,.92,5.7,1.45,8.28l1.91,9.47h-6.88s1.85-9.42,1.85-9.42c.54-2.48,1.08-5.6,1.51-8.34Zm17.27,4.3v28.58h4.2V25.22h-4.2Z"/>
  </g>
</svg>