<?xml version="1.0" encoding="UTF-8"?>
<svg id="_レイヤー_2" data-name="レイヤー 2" xmlns="http://www.w3.org/2000/svg" viewBox="0 0 70.61 70.61">
  <defs>
    <style>
      .cls-1 {
        fill: #616161;
      }
    </style>
  </defs>
  <g id="_スキル" data-name="スキル">
    <path class="cls-1" d="M3.36,0C1.52,0,0,1.52,0,3.36v63.88c0,1.84,1.52,3.36,3.36,3.36h63.88c1.84,0,3.36-1.52,3.36-3.36V3.36c0-1.84-1.52-3.36-3.36-3.36H3.36Zm0,3.36h63.88v63.88H3.36V3.36Zm21.16,13.45c-2.42,0-4.36,.27-6.03,.7V53.8s4.14,0,4.14,0v-15.42c.59,.05,1.13,.05,1.83,.05,3.23,0,6.62-1.34,8.55-4.03,1.4-1.83,2.2-4.09,2.2-7.42s-.91-5.81-2.63-7.53c-1.88-1.83-4.73-2.63-8.07-2.63Zm.66,2.76c4.62,0,6.13,3.33,6.13,7.04,0,5.11-2.74,7.8-6.78,7.8-.7,0-1.18-.05-1.67-.11v-14.47c.54-.16,1.35-.27,2.31-.27Zm21.42,7.33c-4.19,0-7.42,2.97-7.42,7.24,0,2.97,1.89,5.24,5.41,7.45,2.73,1.73,3.46,3.13,3.46,5.13,0,2.32-1.56,3.78-3.96,3.78-1.73,0-3.41-.76-4.35-1.35l-1.06,3.13c1.17,.92,3.35,1.51,5.3,1.51,4.47,0,8.15-2.54,8.15-7.78,0-3.62-2.45-6.05-5.58-8-2.68-1.73-3.35-2.75-3.35-4.48s1.17-3.35,3.46-3.35c1.45,0,2.57,.49,3.63,1.19l1.12-3.14c-1.12-.7-2.68-1.35-4.8-1.35Z"/>
  </g>
</svg>